<svg width="218" height="60" viewBox="0 0 218 60" fill="none" xmlns="http://www.w3.org/2000/svg">
<path fill-rule="evenodd" clip-rule="evenodd" d="M5.36475 21.3461C3.65727 16.4691 4.16477 7.15504 6.3948 2.44604C7.67895 -0.265299 9.38887 0.593038 8.4353 3.47029C7.3727 6.67708 7.47227 15.2835 8.6236 19.7287C9.7457 24.0611 10.8617 26.6725 10.9586 25.1924C11.3867 18.6498 15.3945 11.9471 19.8173 10.3764C21.9794 9.6086 22.3567 11.066 20.3027 12.2518C14.4787 15.6138 12.847 26.9553 16.8384 36.3319C17.952 38.948 22.4622 47.2811 23.9027 49.3844L25.4569 51.6532L26.7646 47.6535C28.0869 43.6096 30.1948 38.844 30.6593 38.8488C30.798 38.8502 31.3355 39.4326 31.8533 40.1431L32.7948 41.4347L31.9289 43.5965C30.7228 46.6075 29.5972 50.3279 28.5953 54.6155C27.6071 58.8444 27.3561 59.2308 25.5972 59.2308C24.1807 59.2308 24.0456 59.0747 21.2467 54.2024C16.3859 45.7416 15.5879 44.1727 14.3101 43.3412C13.8611 43.049 13.3528 42.8479 12.5882 42.4708C5.17522 38.814 0.20522 32.5289 0.0772949 26.6488C0.00396991 23.2777 1.13115 23.3408 2.05042 26.7593C3.34752 31.5826 6.3206 35.5326 10.1004 37.4541C12.7282 38.7901 12.7536 38.7639 11.3835 36.1374C9.98755 33.4607 6.50697 25.3616 6.23905 24.1655C6.12845 23.6725 5.73505 22.4039 5.36475 21.3461ZM59.8918 4.09177C59.6634 2.85175 59.574 1.59996 59.6933 1.30982C60.0232 0.506894 61.0403 1.06904 61.7265 2.43362C65.7354 10.406 64.3238 20.6586 57.1947 35.3476C55.6206 38.591 55.6437 38.767 57.5225 37.8595C61.3194 36.0255 64.7094 31.6287 66.0997 26.7343C67.2122 22.8184 68.7914 23.4293 68.1072 27.5107C67.1378 33.2911 62.3316 39.1839 56.201 42.1082C54.1098 43.1056 52.8356 43.988 52.3433 44.7796C51.0517 46.8561 47.5179 52.8072 46.1602 55.1923C43.9577 59.0614 43.7998 59.2308 42.3925 59.2308C40.6819 59.2308 40.3933 58.8197 39.5563 55.1923C36.2416 40.8258 31.5726 32.5583 25.0178 29.4484C23.6045 28.7779 23.4517 27.9804 24.6935 27.7554C25.8581 27.5444 29.582 29.5331 31.8846 31.5955L34.0308 33.5178L36.4521 31.4239C39.9378 28.4095 43.6667 26.893 44.1637 28.2878C44.2428 28.5095 43.183 29.3706 41.8087 30.2013C40.4344 31.032 38.56 32.6197 37.6433 33.7295L35.9766 35.7474L38.0497 39.7006C39.9738 43.3696 40.4831 44.6822 41.9636 49.7889L42.5157 51.6933L44.1036 49.4043C54.8526 33.9088 56.5554 19.7834 48.518 12.7851C45.6273 10.2683 45.9222 9.18752 49.0733 10.7489C53.3148 12.8507 57.0377 19.3638 57.0652 24.7304C57.0736 26.3963 57.5846 25.6113 58.8924 21.9231C60.7708 16.6257 61.1044 10.6744 59.8918 4.09177ZM94.1406 23.25L89.625 39.125L88.9989 41.8259L88.5469 38.8125L84.9531 23.25H81.9531L87.4688 46H88.0312H89.625H90.2031L95.0625 29.4219L95.4197 27.6801L95.7812 29.4219L100.469 46H101.047H102.641H103.203L108.703 23.25H105.688L102.172 38.7969L101.688 41.8924L101.047 39.125L96.6562 23.25H96.3281H94.5H94.1406ZM115.281 46V23.25H112.266V46H115.281ZM134.562 46V43.5469H123.781V23.25H120.766V46H123.188H123.781H134.562ZM141.031 46H144.172C145.755 46 147.177 45.7552 148.438 45.2656C149.708 44.7656 150.792 44.0521 151.688 43.125C152.594 42.1979 153.286 41.0781 153.766 39.7656C154.245 38.4427 154.484 36.9583 154.484 35.3125V33.9531C154.484 32.3073 154.245 30.8281 153.766 29.5156C153.286 28.1927 152.599 27.0677 151.703 26.1406C150.818 25.2031 149.76 24.4896 148.531 24C147.302 23.5 145.943 23.25 144.453 23.25H141.031H139.328H138.016V46H139.422H141.031ZM141.031 43.5469H144.172C145.797 43.5469 147.151 43.2083 148.234 42.5312C149.318 41.8437 150.13 40.8854 150.672 39.6562C151.224 38.4167 151.5 36.9687 151.5 35.3125V33.9219C151.5 32.6198 151.344 31.4635 151.031 30.4531C150.719 29.4323 150.26 28.5729 149.656 27.875C149.052 27.1667 148.312 26.6302 147.438 26.2656C146.573 25.901 145.578 25.7188 144.453 25.7188H141.031V43.5469ZM172.812 46V43.5469H162.031V23.25H159.016V46H161.438H162.031H172.812ZM179.5 46V23.25H176.484V46H179.5ZM188 33.4844V25.7188H199.078V23.25H188H187.344H184.984V46H188V35.9531H197.531V33.4844H188ZM217.125 46V43.5469H205.688V35.4844H215.531V33.0312H205.688V25.7188H216.969V23.25H205.688H205.078H202.672V46H205.078H205.688H217.125Z" fill="#F7F7F7"/>
</svg>
